<svg width="39" height="38" viewBox="0 0 39 38" fill="none" xmlns="http://www.w3.org/2000/svg">
<path d="M36.9886 8.35144C36.6491 12.2442 35.7166 15.566 34.834 17.8708C34.1476 19.6631 32.7054 20.9264 30.9487 21.2993C29.149 21.6813 26.4214 22.0645 22.722 22.0645C20.1187 22.0645 17.9145 21.8747 16.152 21.6291C13.0495 21.1969 10.8617 18.4454 10.3627 15.0972L8.90369 5.30823H34.3123C35.8641 5.30823 37.1347 6.67633 36.9886 8.35144Z" stroke="black" stroke-width="3" stroke-linecap="round" stroke-linejoin="round"/>
<path d="M32.9074 29.6811H17.3182C14.5619 29.6811 12.2124 27.5133 11.7712 24.5631L9.08737 6.61785C8.64615 3.66768 6.29666 1.5 3.54031 1.5H2" stroke="black" stroke-width="3" stroke-linecap="round" stroke-linejoin="round"/>
<path d="M14.2323 36.5C15.969 36.5 17.3769 34.9737 17.3769 33.0906C17.3769 31.2075 15.969 29.6811 14.2323 29.6811C12.4957 29.6811 11.0878 31.2075 11.0878 33.0906C11.0878 34.9737 12.4957 36.5 14.2323 36.5Z" stroke="black" stroke-width="3" stroke-linecap="round" stroke-linejoin="round"/>
<path d="M32.9074 36.5C34.6441 36.5 36.0518 34.9737 36.0518 33.0906C36.0518 31.2075 34.6441 29.6811 32.9074 29.6811C31.1707 29.6811 29.763 31.2075 29.763 33.0906C29.763 34.9737 31.1707 36.5 32.9074 36.5Z" stroke="black" stroke-width="3" stroke-linecap="round" stroke-linejoin="round"/>
</svg>
