<svg width="35" height="36" viewBox="0 0 35 36" fill="none" xmlns="http://www.w3.org/2000/svg">
<g clip-path="url(#clip0_31_18)">
<path fill-rule="evenodd" clip-rule="evenodd" d="M11.9823 13.6108C11.8425 13.6424 11.7204 13.7268 11.6416 13.8464C11.5628 13.966 11.5333 14.1115 11.5595 14.2523C11.5716 14.3219 11.5977 14.3882 11.6361 14.4475C11.6745 14.5067 11.7245 14.5576 11.783 14.5971C11.8415 14.6365 11.9074 14.6638 11.9767 14.6772C12.046 14.6906 12.1174 14.6899 12.1864 14.6751C12.9103 14.5276 13.5513 14.1107 13.9797 13.5088C14.0818 13.3775 14.1401 13.2172 14.2422 13.0859L14.8544 13.3192C14.9841 13.3811 15.1328 13.389 15.2682 13.3411C15.3352 13.3174 15.3969 13.2808 15.4497 13.2332C15.5027 13.1857 15.5455 13.1282 15.5762 13.0641C15.6068 12.9999 15.6246 12.9304 15.6282 12.8594C15.632 12.7884 15.6218 12.7174 15.598 12.6504C15.5744 12.5834 15.5378 12.5217 15.4903 12.4688C15.4427 12.416 15.3853 12.373 15.3211 12.3424L14.8254 12.0216C14.985 11.6344 15.1117 11.2345 15.2044 10.8261C15.3323 10.2233 15.266 9.59548 15.0148 9.03275C14.8874 8.79459 14.7089 8.58749 14.4921 8.4262C14.2754 8.26491 14.0258 8.1534 13.761 8.09963C13.3217 7.99302 12.8611 8.01311 12.4327 8.15763C12.0044 8.30214 11.6257 8.56513 11.3408 8.91611C11.1427 9.14683 10.967 9.3958 10.8159 9.65969C10.4077 9.48473 9.98484 9.33893 9.56202 9.19312C9.56202 9.06192 9.66408 8.91611 9.73698 8.77031C9.80988 8.62452 10.1161 8.11422 10.3347 7.77889C10.3705 7.72632 10.3954 7.66721 10.4081 7.60497C10.4208 7.54271 10.4211 7.47856 10.4089 7.4162C10.3967 7.35386 10.3723 7.29453 10.337 7.24167C10.3018 7.1888 10.2564 7.14345 10.2035 7.10822C10.0997 7.03679 9.97259 7.00759 9.848 7.02655C9.72342 7.04551 9.61073 7.1112 9.53286 7.21027C9.27043 7.54074 9.02257 7.87609 8.7893 8.21629C8.65807 8.42039 8.54144 8.6391 8.4248 8.85779L7.82701 8.65367C7.71089 8.60461 7.58013 8.60309 7.46288 8.64944C7.34565 8.6958 7.25128 8.78632 7.20009 8.90153C7.17335 8.95788 7.15818 9.019 7.15547 9.0813C7.15277 9.14361 7.16257 9.20582 7.18433 9.26426C7.20607 9.32271 7.23931 9.3762 7.28209 9.42158C7.32487 9.46697 7.3763 9.50331 7.43337 9.52847L7.97282 9.89296C7.78866 10.285 7.64691 10.6955 7.55 11.1177C7.45712 11.5992 7.45712 12.0941 7.55 12.5757C7.59825 12.8462 7.70387 13.1033 7.8598 13.3297C8.01572 13.556 8.21831 13.7463 8.45395 13.8878C8.73324 14.0266 9.04641 14.0825 9.35646 14.0489C9.66651 14.0153 9.96045 13.8937 10.2035 13.6983C10.7693 13.2953 11.2335 12.7662 11.5595 12.1528L12.0406 12.3861L13.1195 12.634C13.0085 12.8671 12.85 13.0744 12.6542 13.2426C12.4583 13.4109 12.2295 13.5363 11.9823 13.6108ZM9.24126 12.2549C9.24126 12.2549 9.08089 12.1528 9.06631 12.1528C8.95607 11.8044 8.92616 11.4356 8.97882 11.0739C8.97882 10.9281 8.97882 10.7823 9.08089 10.6365L9.8682 11.1468H9.98484C9.83044 11.571 9.57526 11.9513 9.24126 12.2549ZM12.4343 10.5053C12.5102 10.37 12.5929 10.2386 12.6821 10.1117C12.7653 9.98692 12.8818 9.88802 13.0184 9.82615C13.155 9.76431 13.3062 9.74199 13.4548 9.76174C13.5136 9.77048 13.568 9.79786 13.61 9.83986C13.652 9.88188 13.6794 9.93626 13.6881 9.99501C13.7315 10.1968 13.7315 10.4056 13.6881 10.6074C13.6412 10.805 13.5828 10.9997 13.5132 11.1906C13.309 11.0302 13.1195 10.8552 12.8133 10.6949L12.4343 10.5053Z" fill="black"/>
<path fill-rule="evenodd" clip-rule="evenodd" d="M24.7834 7.89576C24.7834 8.07076 24.6959 8.34784 26.5625 8.74159C26.7422 8.7548 26.9226 8.7548 27.1021 8.74159C27.2914 8.7561 27.4816 8.7561 27.6709 8.74159C29.4938 8.59576 29.5375 8.46451 29.5959 8.12909C29.6542 7.79367 29.5959 7.48742 27.8021 7.04992C27.607 6.99521 27.4066 6.96099 27.2042 6.94784C27.0104 6.92604 26.8148 6.92604 26.6209 6.94784C26.4313 7.03534 24.7834 7.35617 24.7834 7.89576Z" fill="black"/>
<path fill-rule="evenodd" clip-rule="evenodd" d="M23.5149 9.1494C23.3692 8.26004 22.7714 5.59193 21.9695 6.00016C21.6443 5.86018 21.3077 5.74799 20.9635 5.66483C20.7742 5.65037 20.5841 5.65037 20.3949 5.66483C20.2121 5.67147 20.0309 5.70085 19.8554 5.7523C19.4456 5.906 19.0502 6.09631 18.6744 6.32092C18.5516 6.34567 18.4431 6.41742 18.3724 6.5209C18.3015 6.62439 18.2739 6.75142 18.2954 6.87496C18.3043 6.93654 18.3253 6.99575 18.3574 7.04907C18.3894 7.1024 18.4319 7.14876 18.4822 7.18544C18.5325 7.22211 18.5895 7.24838 18.65 7.26266C18.7107 7.27695 18.7734 7.27896 18.8348 7.26861C19.3159 7.26861 19.7242 7.47273 20.1908 7.50188C20.4384 7.51626 20.6867 7.51626 20.9344 7.50188L21.4155 7.39983C20.5552 8.85781 19.5492 10.3158 18.4995 12.0945C18.0183 12.8818 17.5372 13.6983 17.0415 14.5294C16.5458 15.3604 16.1085 16.1915 15.6564 17.0225C15.4961 17.3142 14.7525 18.9033 14.5921 19.195C13.365 17.7563 11.8757 16.564 10.2036 15.6811C8.33806 14.8133 6.27267 14.4657 4.22584 14.6752C4.37163 13.5525 5.17352 11.1177 5.31933 10.0096C5.4068 9.38269 5.46512 8.75576 5.5526 8.12882C5.64009 7.50188 5.62551 6.90411 5.82961 6.32092C5.94246 5.74774 6.09346 5.18272 6.2816 4.62966C7.7637 4.80694 9.22733 5.1143 10.6555 5.5482C11.3262 5.7523 11.9823 5.95643 12.6384 6.20428C13.2945 6.45214 13.9214 6.71457 14.5484 7.02075C16.0326 7.71561 17.3884 8.65722 18.5579 9.80551C18.6022 9.86616 18.6588 9.91687 18.724 9.95436C18.7892 9.99187 18.8615 10.0153 18.9363 10.0232C19.011 10.0312 19.0867 10.0234 19.1583 10.0003C19.2297 9.97731 19.2958 9.93959 19.3519 9.88957C19.4081 9.83956 19.4531 9.77835 19.4842 9.7099C19.5153 9.64144 19.5317 9.56724 19.5325 9.49205C19.5332 9.41688 19.5182 9.34237 19.4884 9.27332C19.4587 9.20427 19.4148 9.1422 19.3597 9.09108C18.2585 7.6654 16.9043 6.45455 15.3649 5.51903C14.7013 5.11791 14.0037 4.77637 13.2799 4.49844C12.5669 4.21872 11.83 4.00401 11.0784 3.85692C9.33688 3.54981 7.56382 3.46164 5.80046 3.59449C5.36306 3.59449 4.34248 6.00016 3.9634 7.37067C3.83251 7.84931 3.73508 8.33648 3.67181 8.82866C3.60382 9.31167 3.56971 9.79886 3.56975 10.2866C3.56975 11.4676 3.11777 13.9462 3.24899 15.1125C3.38021 16.2789 2.76786 14.1795 9.44542 17.2558L10.5535 17.7807C10.2782 18.3109 10.0724 18.8744 9.94114 19.4573C9.82494 20.0641 9.82494 20.6876 9.94114 21.2944C10.1148 22.1959 10.5874 23.0127 11.2825 23.6126C10.7139 24.1374 10.1453 24.6624 9.56206 25.0706C9.09643 25.4524 8.60966 25.8078 8.10407 26.1349C7.59377 26.4703 7.09807 26.8202 6.64609 27.1264C6.33452 27.3221 6.00787 27.4927 5.66924 27.6367C5.06189 27.8721 4.40662 27.9571 3.75929 27.8845C3.19365 27.8295 2.67123 27.5578 2.30131 27.1264C2.09789 26.8807 1.98061 26.5752 1.96744 26.2565C1.95427 25.9379 2.04594 25.6237 2.22841 25.3621C2.40316 25.0086 2.65065 24.696 2.95467 24.4447C3.2587 24.1934 3.61239 24.0092 3.99257 23.9042C4.251 23.8463 4.51503 23.817 4.77988 23.8167C5.04671 23.7944 5.31492 23.7944 5.58177 23.8167C5.95429 23.8891 6.31661 24.0066 6.66067 24.1666C7.00418 24.3207 7.32738 24.5166 7.62294 24.7498C7.66644 24.7948 7.71855 24.8306 7.77617 24.8551C7.83377 24.8794 7.89571 24.892 7.95828 24.892C8.02085 24.892 8.08278 24.8794 8.14039 24.8551C8.19801 24.8306 8.25011 24.7948 8.29361 24.7498C8.3809 24.6601 8.42972 24.5398 8.42972 24.4145C8.42972 24.2892 8.3809 24.1689 8.29361 24.0792C7.95696 23.761 7.58521 23.4822 7.18554 23.2481C6.78008 23.0158 6.34967 22.8299 5.90252 22.6941C5.56512 22.5945 5.21812 22.5311 4.86735 22.5045C4.51838 22.4682 4.16657 22.4682 3.81761 22.5045C3.0227 22.586 2.26659 22.8888 1.63516 23.3785C1.00372 23.8682 0.52228 24.525 0.245544 25.2748C0.0255723 25.7834 -0.048652 26.3431 0.0311621 26.8916C0.110976 27.4399 0.341686 27.9553 0.697519 28.3803C1.02099 28.794 1.42602 29.1369 1.88749 29.3877C2.34897 29.6385 2.85704 29.7918 3.38021 29.8382C4.34243 29.9276 5.31074 29.7511 6.17954 29.3279C6.56915 29.1284 6.94 28.8942 7.28761 28.6281C7.81248 28.2636 8.29361 27.8553 8.7456 27.4617C9.19756 27.0681 9.72243 26.6306 10.2036 26.1932C10.6847 25.7559 11.472 24.8664 12.1135 24.1812C12.2133 24.0802 12.2692 23.944 12.2692 23.8021C12.2692 23.6602 12.2133 23.524 12.1135 23.4231C11.7989 22.9271 11.6414 22.3479 11.6616 21.7609V20.1426C11.6234 19.5989 11.6234 19.0534 11.6616 18.5097C12.5002 18.9629 13.2999 19.4847 14.0526 20.0697C13.2945 21.5277 13.1779 21.5277 12.5218 22.7524C12.4843 22.8127 12.4592 22.8797 12.4477 22.9497C12.4362 23.0197 12.4387 23.0913 12.455 23.1605C12.4712 23.2296 12.5009 23.2948 12.5424 23.3522C12.5839 23.4098 12.6363 23.4587 12.6967 23.496C12.7878 23.5172 12.8826 23.5172 12.9737 23.496C12.8805 23.5224 12.7967 23.5748 12.7321 23.6471C12.6676 23.7194 12.625 23.8086 12.6092 23.9042V24.0646C12.5018 24.0611 12.3961 24.0918 12.3071 24.152C12.218 24.2122 12.1503 24.299 12.1135 24.3999C11.8511 25.1289 11.5887 25.858 11.37 26.5868C11.2368 27.115 11.1345 27.6505 11.0638 28.1907C10.9743 28.7259 10.9207 29.2667 10.9034 29.809C10.8962 30.1901 10.9255 30.5708 10.9909 30.9462C11.1057 31.7347 11.4448 32.4737 11.9677 33.0749C12.5299 33.7023 13.2927 34.1146 14.1255 34.2413C14.8735 34.3545 15.6379 34.2806 16.3503 34.0261C17.0626 33.7717 17.7008 33.3447 18.2079 32.7833C18.5564 32.3634 18.7841 31.8567 18.8663 31.3172C18.9484 30.7778 18.8822 30.2261 18.6744 29.7215C18.5726 29.4717 18.4558 29.2283 18.3245 28.9926C18.1822 28.7695 18.0263 28.5553 17.858 28.3511C17.6191 28.0708 17.361 27.8077 17.0852 27.5638C16.7984 27.3192 16.4911 27.0997 16.1668 26.9077C15.7668 26.6848 15.3469 26.4993 14.9129 26.3536C14.487 26.2071 14.0474 26.1046 13.6007 26.0474C13.4867 26.0451 13.3756 26.0831 13.2871 26.155C13.1986 26.2268 13.1385 26.3278 13.1175 26.4398C13.0965 26.5518 13.1159 26.6678 13.1724 26.7668C13.2288 26.8658 13.3186 26.9415 13.4257 26.9806C13.8045 27.0711 14.1751 27.1931 14.5338 27.345C14.8798 27.506 15.2116 27.6963 15.5253 27.9136C15.7609 28.0933 15.9806 28.2934 16.1814 28.5114C16.3819 28.7317 16.567 28.9655 16.7354 29.2112L17.1873 30.2172C17.2901 30.5322 17.2826 30.8727 17.1659 31.1828C17.0494 31.4928 16.8306 31.754 16.5458 31.9232C15.924 32.3758 15.1483 32.5645 14.388 32.448C13.9547 32.3951 13.5531 32.1943 13.2508 31.8794C12.9073 31.5332 12.6652 31.0995 12.5509 30.6255C12.4657 30.2717 12.4168 29.9102 12.4051 29.5467C12.3757 29.1583 12.3757 28.7685 12.4051 28.3803C12.4348 27.8896 12.5031 27.4022 12.6092 26.9222C12.7696 26.1932 12.9592 25.4642 13.1633 24.7498C13.1774 24.6776 13.1774 24.6033 13.1633 24.5312C13.463 24.5751 13.7675 24.5751 14.0672 24.5312C14.5112 24.4454 14.9424 24.3034 15.3503 24.1084C16.121 23.7584 16.8419 23.3072 17.4934 22.767C18.1459 22.2483 18.7553 21.6778 19.3159 21.0612C20.3136 19.9793 21.216 18.8135 22.0132 17.5765C22.5499 16.7087 22.9899 15.7847 23.3255 14.821C23.438 14.4648 23.5162 14.0986 23.5586 13.7275C23.5586 13.2172 23.6461 12.6923 23.6753 12.182C23.731 11.1683 23.6772 10.1516 23.5149 9.1494ZM22.1445 12.0654C22.1445 12.5319 22.0132 12.9985 21.9112 13.5234C21.8556 13.7966 21.7776 14.0648 21.6778 14.3252C21.3551 15.1554 20.96 15.9556 20.4969 16.7164C19.7732 17.8928 18.9694 19.0181 18.0912 20.0843C17.6515 20.6817 17.1639 21.2425 16.6333 21.7609C16.0999 22.2738 15.5019 22.715 14.8546 23.0731C14.5949 23.2207 14.3214 23.3428 14.0381 23.4377C13.7976 23.5341 13.5382 23.5741 13.2799 23.5542C13.3649 23.527 13.4407 23.4765 13.4986 23.4085C14.5921 21.8047 15.9043 19.8947 17.1873 17.8536C17.6976 17.0517 18.1933 16.2351 18.6452 15.4188C19.0973 14.6023 19.593 13.7421 20.0158 12.911C20.8469 11.2926 21.4738 9.79092 22.1737 8.40584C22.1737 8.72659 22.2757 9.04735 22.2902 9.38268C22.3379 10.2699 22.289 11.1596 22.1445 12.0362V12.0654Z" fill="black"/>
<path fill-rule="evenodd" clip-rule="evenodd" d="M34.5665 17.2558C34.2095 16.8354 33.8087 16.4542 33.3709 16.1186C32.8462 15.7168 32.2849 15.3654 31.6943 15.0688C30.4404 14.4127 29.0553 13.9462 27.8306 13.2755C27.7775 13.2414 27.7178 13.2185 27.6556 13.2082C27.5933 13.1978 27.5296 13.2002 27.4682 13.2152C27.4069 13.2302 27.3492 13.2575 27.2987 13.2954C27.2482 13.3333 27.206 13.3811 27.1745 13.4359C27.1084 13.5426 27.0867 13.671 27.1139 13.7936C27.1411 13.9162 27.2151 14.0233 27.3203 14.092C28.4721 14.8939 29.7697 15.55 30.9507 16.3226C31.4216 16.628 31.8569 16.985 32.2483 17.3871C32.4233 17.5619 32.6856 17.7953 32.919 18.0722C33.038 18.1647 33.1247 18.2921 33.1669 18.4368C33.1912 18.8098 33.1315 19.1835 32.9919 19.5302C32.7858 20.1947 32.5424 20.847 32.2629 21.484C32.1025 21.9067 31.9422 22.3295 31.7526 22.7524C31.563 23.1752 31.3736 23.5688 31.1548 23.948C30.8269 24.5444 30.4462 25.1104 30.0176 25.6392C29.5724 26.1643 29.0849 26.652 28.5596 27.0972C28.4979 27.1613 28.4572 27.2426 28.4429 27.3304C28.0056 27.1556 27.5682 26.9514 27.1453 26.7327C25.9352 26.0766 24.8125 25.2748 23.5878 24.7352L23.063 24.4291C23.4475 24.2551 23.8223 24.0604 24.1856 23.8459C24.6346 23.5847 25.0679 23.2974 25.4832 22.9856C25.7761 22.7833 26.0451 22.5486 26.2852 22.2859C26.4355 22.106 26.536 21.8898 26.5767 21.659C26.5932 21.477 26.5599 21.2941 26.4803 21.1296C26.4007 20.9652 26.2777 20.8257 26.1247 20.7258C25.942 20.6074 25.752 20.5003 25.5561 20.4051C25.242 20.1993 24.9403 19.9753 24.6523 19.7344L24.4189 19.5302L24.6085 19.3844L26.8246 18.1597C27.0781 18.0067 27.3172 17.831 27.539 17.6348C27.6904 17.5061 27.8059 17.3404 27.8743 17.1537C27.9341 17.0601 27.9657 16.9513 27.9657 16.8402C27.9657 16.7292 27.9341 16.6204 27.8743 16.5268C27.8014 16.4247 27.5974 16.2061 27.5682 16.1624L26.6642 15.0688L25.6436 13.7712C25.5645 13.6795 25.4536 13.6209 25.3333 13.6074C25.2129 13.5938 25.0917 13.6261 24.9941 13.6979C24.8965 13.7698 24.8296 13.8757 24.8069 13.9947C24.784 14.1137 24.8069 14.237 24.8709 14.3398L25.7749 15.6811L26.5039 16.8767L26.1539 17.0808L23.9816 17.9848C23.8357 17.9848 23.2817 18.2035 22.9609 18.3639C22.7211 18.4837 22.5267 18.6781 22.4069 18.9179C22.3456 19.1075 22.3456 19.3115 22.4069 19.5011C22.5232 19.8267 22.6905 20.1318 22.9026 20.4051C23.154 20.7202 23.4375 21.0086 23.7482 21.2652C23.9378 21.4256 24.1127 21.5715 24.3169 21.7172C23.9985 21.9492 23.6675 22.1634 23.3255 22.3587C22.9317 22.6066 22.5381 22.8253 22.1299 23.0294L21.0509 23.5834C20.8793 23.6745 20.742 23.8193 20.6605 23.9958C20.5789 24.1721 20.5573 24.3705 20.599 24.5603C20.6423 24.7102 20.7168 24.8494 20.8177 24.9685C20.9865 25.1209 21.1724 25.253 21.3717 25.3621C21.5887 25.5081 21.818 25.635 22.057 25.7413C22.3777 25.9017 22.7277 26.0328 23.063 26.1641C24.3023 26.6306 25.4541 27.3158 26.6642 27.8553C27.2132 28.1103 27.7781 28.3295 28.3554 28.5114C28.6325 28.5989 30.0322 27.4617 30.9798 26.4849C31.5123 25.9471 31.9998 25.3669 32.4379 24.7498C32.7198 24.3416 32.9821 23.9188 33.2251 23.4815C33.4699 23.0575 33.689 22.6193 33.8812 22.1692C34.2185 21.4824 34.5156 20.7765 34.7706 20.0551C34.9555 19.4713 35.0298 18.8582 34.9894 18.2472C34.9377 17.8854 34.7919 17.5436 34.5665 17.2558Z" fill="black"/>
<path fill-rule="evenodd" clip-rule="evenodd" d="M17.6833 4.33852C17.7716 4.41044 17.8699 4.46937 17.9749 4.51352C19.3312 5.16977 19.4333 4.92185 19.5208 4.83435C19.9145 4.46977 19.1124 3.2156 19.0978 3.18643C19.0095 3.0665 18.901 2.96287 18.777 2.88018C18.6587 2.78953 18.5254 2.72042 18.3833 2.67602C17.027 2.1656 16.7645 2.4281 16.6478 2.67602C16.5312 2.92393 16.2249 3.02602 17.6833 4.33852Z" fill="black"/>
<path fill-rule="evenodd" clip-rule="evenodd" d="M24.4485 3.93033C24.5787 3.76782 24.6912 3.59181 24.7839 3.40533C25.5714 2.26783 25.6589 2.2095 25.4693 1.94701C25.0902 1.27617 23.6318 2.2241 23.6027 2.23868C23.4525 2.32612 23.3192 2.43971 23.2089 2.57408C23.086 2.70105 22.9871 2.84929 22.9173 3.01158C22.786 3.30325 22.4068 4.58658 22.9173 4.81992C22.9173 4.86367 23.1798 5.15533 24.4485 3.93033Z" fill="black"/>
</g>
<defs>
<clipPath id="clip0_31_18">
<rect width="35" height="35" fill="white" transform="translate(0 0.5)"/>
</clipPath>
</defs>
</svg>
