<svg width="35" height="36" viewBox="0 0 35 36" fill="none" xmlns="http://www.w3.org/2000/svg">
<g clip-path="url(#clip0_34_38)">
<path d="M17.5 34.25C26.25 34.25 32.5 31.1547 32.5 24.2653C32.5 16.7769 28.75 11.7845 21.25 8.04032L24.2 4.24615C24.3499 3.99723 24.4312 3.71315 24.4356 3.42273C24.4401 3.1323 24.3676 2.84587 24.2254 2.59245C24.0833 2.33902 23.8766 2.12763 23.6263 1.97968C23.376 1.83173 23.0909 1.7525 22.8 1.75H12.2C11.9091 1.7525 11.624 1.83173 11.3737 1.97968C11.1234 2.12763 10.9167 2.33902 10.7746 2.59245C10.6324 2.84587 10.5599 3.1323 10.5644 3.42273C10.5688 3.71315 10.6501 3.99723 10.8 4.24615L13.75 8.06527C6.25 11.8345 2.5 16.8268 2.5 24.3153C2.5 31.1547 8.75 34.25 17.5 34.25Z" stroke="black" stroke-width="3" stroke-linecap="round" stroke-linejoin="round"/>
<path d="M20.9569 17.5143C20.838 17.1779 20.6546 16.872 20.4214 16.6115C19.9255 16.0574 19.2048 15.7087 18.4027 15.7087H16.3064C14.9712 15.7087 13.8888 16.7911 13.8888 18.1263C13.8888 19.2624 14.6799 20.2452 15.7897 20.488L18.9815 21.1862C20.2248 21.4582 21.1111 22.56 21.1111 23.8328C21.1111 25.3286 19.8985 26.5422 18.4027 26.5422H16.5971C15.4179 26.5422 14.4147 25.7885 14.0429 24.7366" stroke="black" stroke-width="3" stroke-linecap="round" stroke-linejoin="round"/>
<path d="M17.5 15.7084V13" stroke="black" stroke-linecap="round" stroke-linejoin="round"/>
<path d="M17.5 29.2502V26.5417" stroke="black" stroke-linecap="round" stroke-linejoin="round"/>
</g>
<defs>
<clipPath id="clip0_34_38">
<rect width="35" height="35" fill="white" transform="translate(0 0.5)"/>
</clipPath>
</defs>
</svg>
