<svg width="25" height="25" viewBox="0 0 25 25" fill="none" xmlns="http://www.w3.org/2000/svg">
<path d="M13.8472 0.474054C13.4708 0.16799 12.9934 0 12.5 0C12.0066 0 11.5292 0.16799 11.1528 0.474054L0.736111 8.95089C0.505452 9.13846 0.320128 9.37195 0.193011 9.63513C0.065894 9.89831 3.20715e-05 10.1849 0 10.4749V23.0017C0 23.5317 0.219493 24.04 0.610194 24.4147C1.0009 24.7895 1.5308 25 2.08333 25H8.68056C8.95682 25 9.22177 24.8947 9.41712 24.7074C9.61248 24.52 9.72222 24.2658 9.72222 24.0008V16.6745C9.72222 16.1223 10.1699 15.6745 10.7222 15.6745H14.2778C14.8301 15.6745 15.2778 16.1223 15.2778 16.6745V24.0008C15.2778 24.5524 15.7444 25 16.3194 25H22.9167C23.4692 25 23.9991 24.7895 24.3898 24.4147C24.7805 24.04 25 23.5317 25 23.0017V10.4749C25 10.1849 24.9341 9.89831 24.807 9.63513C24.6799 9.37195 24.4945 9.13846 24.2639 8.95089L13.8472 0.474054Z" fill="black"/>
</svg>
